<svg width="238" height="59" viewBox="0 0 238 59" fill="none" xmlns="http://www.w3.org/2000/svg">
<rect x="40" y="8" width="157" height="43" fill="#E7A4D4"/>
<path d="M18.8066 48.3398H18.7539C18.3672 48.3398 18.1738 48.1406 18.1738 47.7422C18.1738 47.6719 18.1973 47.4727 18.2441 47.1445C18.291 46.8281 18.5137 46.1016 18.9121 44.9648C19.1699 44.2148 19.4512 43.3418 19.7559 42.3457C21.1973 37.4473 23.2891 30.8086 26.0312 22.4297C27.2852 18.5508 28.3281 15.1055 29.1602 12.0938C29.8281 9.65625 30.1621 8.20898 30.1621 7.75195C30.1621 7.64648 30.1445 7.59375 30.1094 7.59375C29.793 7.59375 28.7383 8.44922 26.9453 10.1602C25.1641 11.8711 23.2656 13.8516 21.25 16.1016C19.0469 18.5859 17.3535 20.2676 16.1699 21.1465C15.5137 21.6387 14.9688 21.8848 14.5352 21.8848C14.1953 21.8848 13.9258 21.7266 13.7266 21.4102C13.3047 20.7305 13.0938 19.3066 13.0938 17.1387V16.9629C13.0938 16.5293 13.0703 16.166 13.0234 15.873C12.9766 15.5684 12.918 15.416 12.8477 15.416C12.5781 15.416 11.9746 16.0898 11.0371 17.4375C10.1113 18.7734 9.06836 20.4375 7.9082 22.4297C6.74805 24.4102 5.65234 26.4258 4.62109 28.4766C3.76562 30.1758 3.03906 31.377 2.44141 32.0801C1.84375 32.7832 1.24609 33.1348 0.648438 33.1348C0.484375 33.1348 0.402344 32.8945 0.402344 32.4141C0.402344 31.3242 0.8125 29.0215 1.63281 25.5059C2.39453 22.3184 3.02734 19.7402 3.53125 17.7715C4.03516 15.8027 4.45703 14.2969 4.79688 13.2539C5.13672 12.2109 5.43555 11.4844 5.69336 11.0742C5.95117 10.6523 6.22656 10.3887 6.51953 10.2832C6.82422 10.1777 7.06445 10.125 7.24023 10.125C7.49805 10.125 7.62695 10.2891 7.62695 10.6172C7.61523 10.9453 7.46875 11.4785 7.1875 12.2168C7.08203 12.5215 6.98242 12.832 6.88867 13.1484C5.88086 16.6172 5.04297 19.9102 4.375 23.0273C4.12891 24.1406 4.00586 24.832 4.00586 25.1016C4.00586 25.1367 4.01172 25.1602 4.02344 25.1719L4.04102 25.1895C4.12305 25.1895 4.26367 25.0488 4.46289 24.7676C4.67383 24.4863 4.91406 24.0996 5.18359 23.6074C6.17969 21.8379 7.35156 19.9746 8.69922 18.0176C10.0586 16.0488 11.0488 14.7773 11.6699 14.2031C11.9629 13.9688 12.3086 13.7461 12.707 13.5352C13.3398 13.1836 13.8672 13.0078 14.2891 13.0078C14.4297 13.0078 14.5703 13.0547 14.7109 13.1484C14.8633 13.2305 14.9805 13.5645 15.0625 14.1504C15.1562 14.7246 15.2441 15.6621 15.3262 16.9629C15.4316 18.4043 15.5605 19.2129 15.7129 19.3887H15.7305C15.8359 19.3887 16.2695 19.0137 17.0312 18.2637C17.8047 17.5137 18.748 16.5234 19.8613 15.293C21.9707 12.9727 24.0391 10.8633 26.0664 8.96484C28.1055 7.06641 29.6465 5.8125 30.6895 5.20312C31.1816 4.94531 31.5977 4.81641 31.9375 4.81641C32.0781 4.81641 32.2773 4.86328 32.5352 4.95703C32.793 5.05078 32.9219 5.41406 32.9219 6.04688C32.9219 6.51563 32.4883 8.23242 31.6211 11.1973C30.7656 14.1504 29.793 17.2734 28.7031 20.5664C28.293 21.7969 27.5781 23.9707 26.5586 27.0879C25.5391 30.1934 24.4902 33.4219 23.4121 36.7734C22.334 40.125 21.4961 42.7676 20.8984 44.7012C20.5117 45.9316 20.1309 46.8457 19.7559 47.4434C19.3809 48.041 19.0645 48.3398 18.8066 48.3398ZM41.2715 36.0352C40.4043 36.0352 39.6367 35.8711 38.9688 35.543C38.3125 35.2148 37.8438 34.6934 37.5625 33.9785C37.3164 33.2871 37.1758 32.3027 37.1406 31.0254C36.8945 31.1543 36.5664 31.377 36.1562 31.6934C35.8164 31.9512 35.4414 32.2148 35.0312 32.4844C34.6211 32.7539 34.1875 32.9883 33.7305 33.1875C33.2734 33.375 32.8164 33.4688 32.3594 33.4688C31.6914 33.4688 31.0879 33.2227 30.5488 32.7305C30.1387 32.3086 29.9336 31.834 29.9336 31.3066C29.9336 30.627 30.1797 29.9238 30.6719 29.1973C31.1523 28.4707 31.6973 27.8203 32.3066 27.2461C32.9043 26.6719 33.4141 26.2676 33.8359 26.0332C34.2578 25.7871 34.7266 25.6055 35.2422 25.4883C35.7578 25.3594 36.2559 25.2949 36.7363 25.2949C37.2285 25.2949 37.6621 25.3652 38.0371 25.5059C38.4121 25.6465 38.6113 25.8867 38.6348 26.2266C38.6348 26.4492 38.5176 26.6191 38.2832 26.7363C38.0605 26.8418 37.668 26.9297 37.1055 27C36.4258 27.1055 35.7461 27.416 35.0664 27.9316C34.3984 28.4473 33.8359 28.998 33.3789 29.584C32.9219 30.1699 32.6934 30.6035 32.6934 30.8848C32.6934 31.0254 32.7695 31.0957 32.9219 31.0957C33.1562 31.0957 33.4902 30.9551 33.9238 30.6738C34.3457 30.3926 34.8145 30.0645 35.3301 29.6895C35.9863 29.1855 36.6484 28.7285 37.3164 28.3184C37.9844 27.8965 38.5527 27.6855 39.0215 27.6855C39.666 27.6855 39.9883 28.2129 39.9883 29.2676C39.9883 29.5605 39.9648 29.9004 39.918 30.2871C39.8594 30.7324 39.8301 31.1309 39.8301 31.4824C39.8301 32.3145 39.9883 32.9238 40.3047 33.3105C40.6328 33.6973 41.1602 33.8906 41.8867 33.8906H42.0098C43.9902 33.7617 46.1465 33.123 48.4785 31.9746C50.8105 30.8145 52.7793 29.5898 54.3848 28.3008L55.0176 27.7734C55.6387 27.2578 56.1133 26.8887 56.4414 26.666C56.7695 26.4316 57.0801 26.3145 57.373 26.3145C57.5605 26.3145 57.7656 26.3555 57.9883 26.4375C58.1641 26.5078 58.252 26.625 58.252 26.7891C58.252 26.9531 58.1641 27.1465 57.9883 27.3691C55.4805 29.8887 52.832 31.8984 50.043 33.3984C47.2539 34.8984 44.5996 35.7656 42.0801 36C41.7988 36.0234 41.5293 36.0352 41.2715 36.0352ZM59.2363 36.3516C59.0254 36.3516 58.8262 36.334 58.6387 36.2988C57.9355 36.1582 57.3848 35.8418 56.9863 35.3496C56.5879 34.8457 56.3125 34.2246 56.1602 33.4863C55.9961 32.7363 55.9141 31.9395 55.9141 31.0957C55.9141 29.9238 56.0137 28.7637 56.2129 27.6152C56.4121 26.4668 56.6172 25.5352 56.8281 24.8203C57.3906 22.8047 58.1758 20.4023 59.1836 17.6133C60.2031 14.8125 61.1992 12.2344 62.1719 9.87891C63.1562 7.52344 63.877 6.01172 64.334 5.34375C64.5098 5.10938 64.7383 4.93359 65.0195 4.81641C65.3008 4.69922 65.5762 4.64062 65.8457 4.64062C66.2207 4.64062 66.502 4.76953 66.6895 5.02734C66.7012 5.05078 66.707 5.0918 66.707 5.15039C66.707 5.38477 66.5957 5.82422 66.373 6.46875C66.1621 7.11328 65.8867 7.83398 65.5469 8.63086C64.3516 11.4082 63.1562 14.4082 61.9609 17.6309C60.7773 20.8535 59.9512 23.3262 59.4824 25.0488C58.9434 27.1934 58.6738 29.0391 58.6738 30.5859C58.6738 31.7109 58.8086 32.6133 59.0781 33.293C59.3594 33.9609 59.7637 34.2949 60.291 34.2949C62.1543 34.2949 65.4355 31.8633 70.1348 27C70.6387 26.4961 70.9492 26.1973 71.0664 26.1035C71.1836 25.998 71.3008 25.9453 71.418 25.9453C71.5938 25.957 71.7402 26.0566 71.8574 26.2441C71.9863 26.4316 72.0508 26.6367 72.0508 26.8594C72.0508 27.3867 71.2246 28.4707 69.5723 30.1113C68.5762 31.0957 67.4629 32.0625 66.2324 33.0117C65.002 33.9609 63.7656 34.7578 62.5234 35.4023C61.293 36.0352 60.1973 36.3516 59.2363 36.3516ZM73.5977 24.8027C73.1641 24.8027 72.8652 24.5918 72.7012 24.1699C72.6895 24.1113 72.6836 24.041 72.6836 23.959C72.6836 23.6777 72.8008 23.2969 73.0352 22.8164C73.2812 22.3242 73.6035 21.8438 74.002 21.375C74.4121 20.9062 74.7578 20.6719 75.0391 20.6719C75.5312 20.6719 75.9473 20.7715 76.2871 20.9707C76.6387 21.1582 76.8145 21.3867 76.8145 21.6562C76.8145 21.7734 76.709 22.0137 76.498 22.377C76.2988 22.7285 76.0586 23.0918 75.7773 23.4668C75.0273 24.3574 74.3008 24.8027 73.5977 24.8027ZM71.7871 35.4375H70.8906C70.3398 35.4375 69.7246 35.0742 69.0449 34.3477C68.541 33.7266 68.2891 32.959 68.2891 32.0449C68.2891 31.8223 68.3359 31.3418 68.4297 30.6035C68.5234 29.8535 68.998 28.8457 69.8535 27.5801C70.5566 26.5137 71.1719 25.9805 71.6992 25.9805C72.0508 25.9805 72.4199 26.1562 72.8066 26.5078C73.1113 26.7539 73.2637 26.9531 73.2637 27.1055C73.2637 27.2227 73.2109 27.3809 73.1055 27.5801C73.0117 27.7793 72.8125 28.1133 72.5078 28.582C72.1094 29.1914 71.7871 29.8711 71.541 30.6211C71.248 31.5 71.1016 32.2324 71.1016 32.8184C71.1016 33.2637 71.2188 33.4863 71.4531 33.4863C72.2383 33.4863 73.3926 33.1406 74.916 32.4492C76.4512 31.7461 78.0566 30.8965 79.7324 29.9004C81.4199 28.9043 82.8906 27.9668 84.1445 27.0879C85.1289 26.3965 85.8262 26.0508 86.2363 26.0508C86.6465 26.0508 86.9336 26.2324 87.0977 26.5957C87.1211 26.6426 87.1328 26.6953 87.1328 26.7539C87.1328 27.1055 86.7285 27.6562 85.9199 28.4062C85.1113 29.1562 83.957 30.0234 82.457 31.0078C80.9688 31.9922 79.3574 32.9297 77.623 33.8203C76.9199 34.1836 76.0293 34.5469 74.9512 34.9102C73.8848 35.2617 72.8301 35.4375 71.7871 35.4375ZM82.7559 39.6562C82.498 39.5508 82.3047 39.416 82.1758 39.252C82.0469 39.0879 81.9824 38.8594 81.9824 38.5664C81.9824 38.168 82.0879 37.6113 82.2988 36.8965C82.5098 36.1934 82.8145 35.25 83.2129 34.0664L84.2676 30.8145C85.2988 27.6621 86.1543 25.0547 86.834 22.9922C87.5254 20.9297 88.0879 19.2949 88.5215 18.0879C88.9668 16.8809 89.3242 15.9961 89.5938 15.4336C89.875 14.8594 90.1152 14.4961 90.3145 14.3438C90.5137 14.1914 90.7246 14.1152 90.9473 14.1152C91.2871 14.1152 91.5391 14.1621 91.7031 14.2559C91.8672 14.3379 91.9492 14.5254 91.9492 14.8184C91.9492 15.1699 91.832 15.7207 91.5977 16.4707C91.3633 17.209 91.0176 18.2344 90.5605 19.5469L89.7344 21.9727C88.5508 25.4883 87.8359 27.6445 87.5898 28.4414C87.2383 29.543 87.0625 30.2344 87.0625 30.5156C87.0625 30.6211 87.0859 30.6738 87.1328 30.6738C87.2852 30.6738 87.625 30.3574 88.1523 29.7246C89.2422 28.5293 90.2793 27.5273 91.2637 26.7188C92.1191 26.0742 92.7871 25.752 93.2676 25.752C93.666 25.752 93.9062 25.9453 93.9883 26.332C93.9883 26.4844 93.8828 26.6777 93.6719 26.9121C93.4609 27.1465 93.1445 27.4629 92.7227 27.8613C92.0195 28.5059 91.4863 29.127 91.123 29.7246L91.1055 29.7949C91.1055 29.959 91.1816 30.3105 91.334 30.8496C91.4863 31.3887 91.6855 31.9102 91.9316 32.4141C92.1777 32.918 92.4531 33.2344 92.7578 33.3633C92.9102 33.4102 93.0801 33.4336 93.2676 33.4336C94.5098 33.4336 96.3145 32.4609 98.6816 30.5156C99.6191 29.7422 100.41 29.0449 101.055 28.4238L101.811 27.6152C102.584 26.8418 103.182 26.4551 103.604 26.4551C103.932 26.4551 104.131 26.707 104.201 27.2109C104.201 27.3047 104.166 27.4102 104.096 27.5273C104.037 27.6445 103.908 27.8145 103.709 28.0371C103.51 28.2598 103.217 28.5762 102.83 28.9863C102.396 29.4785 101.781 30.0938 100.984 30.832C100.199 31.5586 99.3086 32.291 98.3125 33.0293C97.3164 33.7559 96.2969 34.377 95.2539 34.8926C94.2227 35.3965 93.2617 35.6484 92.3711 35.6484C90.9648 35.6484 89.9688 34.9043 89.3828 33.416L88.75 31.834C87.8828 32.9355 87.2266 33.7852 86.7812 34.3828C86.2422 35.1445 85.6094 36.1465 84.8828 37.3887C84.4258 38.2324 84.0391 38.8184 83.7227 39.1465C83.3945 39.4863 83.0723 39.6562 82.7559 39.6562ZM117.402 22.1133C116.84 22.1133 116.424 22.0547 116.154 21.9375C115.791 21.7969 115.609 21.5449 115.609 21.1816C115.609 19.998 118.123 17.9824 123.15 15.1348C126.197 13.377 129.021 11.9062 131.623 10.7227C134.236 9.52734 137.488 8.21484 141.379 6.78516C144.625 5.55469 147.027 4.79297 148.586 4.5C149.195 4.38281 149.74 4.32422 150.221 4.32422C150.959 4.32422 151.527 4.46484 151.926 4.74609C152.336 5.01562 152.541 5.25586 152.541 5.4668C152.541 5.53711 152.482 5.6543 152.365 5.81836C152.26 5.9707 151.814 6.04688 151.029 6.04688C149.963 6.04688 147.672 6.70898 144.156 8.0332C140.641 9.35742 136.902 10.9277 132.941 12.7441C128.98 14.5488 125.623 16.248 122.869 17.8418C121.65 18.5801 120.748 19.1543 120.162 19.5645C119.482 20.0566 119.143 20.4082 119.143 20.6191C119.143 20.7832 119.266 20.9121 119.512 21.0059C119.688 21.0996 119.775 21.1992 119.775 21.3047C119.775 21.3633 119.723 21.4512 119.617 21.5684C119.512 21.6738 119.242 21.791 118.809 21.9199C118.387 22.0488 117.918 22.1133 117.402 22.1133ZM115.504 49.3418C115.316 49.3418 115.064 49.2539 114.748 49.0781C114.338 48.832 114.133 48.4219 114.133 47.8477C114.133 47.5898 114.174 47.2969 114.256 46.9688C114.314 46.7578 114.344 46.4824 114.344 46.1426C114.344 45.8496 114.303 45.3984 114.221 44.7891C114.139 44.1914 113.969 43.4707 113.711 42.627C113.453 41.7949 113.172 41.1445 112.867 40.6758C112.609 40.3359 112.398 39.9785 112.234 39.6035C112.07 39.2285 111.988 38.9414 111.988 38.7422C111.988 38.0039 112.521 37.1719 113.588 36.2461C114.654 35.332 115.984 34.5527 117.578 33.9082C117.93 33.7793 118.229 33.5859 118.475 33.3281C118.721 33.0586 118.99 32.5723 119.283 31.8691C119.576 31.166 119.969 30.0996 120.461 28.6699C121.598 25.4824 122.523 23.0625 123.238 21.4102C123.965 19.7578 124.592 18.6973 125.119 18.2285C125.4 17.9707 125.688 17.8418 125.98 17.8418C126.203 17.8418 126.432 17.9238 126.666 18.0879C126.912 18.2285 127.035 18.3984 127.035 18.5977C127.035 18.8438 126.818 19.377 126.385 20.1973C126.139 20.7129 125.746 21.6094 125.207 22.8867C124.48 24.5977 123.824 26.2734 123.238 27.9141C122.523 29.8125 122.166 30.9902 122.166 31.4473C122.166 31.8105 122.33 31.9922 122.658 31.9922H122.992C123.215 31.9922 123.906 31.7812 125.066 31.3594C125.934 31.0664 126.602 30.9199 127.07 30.9199C127.633 30.9199 127.914 31.1309 127.914 31.5527C127.914 31.6582 127.574 31.875 126.895 32.2031C126.215 32.5195 125.371 32.8594 124.363 33.2227L121.059 34.5586C120.742 35.3438 119.781 38.0625 118.176 42.7148C117.016 46.0312 116.395 47.8535 116.312 48.1816C116.125 48.9551 115.855 49.3418 115.504 49.3418ZM116.014 40.377C116.061 40.377 116.148 40.3301 116.277 40.2363C116.418 40.1543 116.699 39.5039 117.121 38.2852C117.121 38.2383 117.168 38.0859 117.262 37.8281L117.455 37.2305C117.561 36.8789 117.613 36.627 117.613 36.4746C117.613 36.3926 117.596 36.334 117.561 36.2988C117.537 36.2754 117.496 36.2637 117.438 36.2637C117.309 36.2637 117.098 36.3281 116.805 36.457C116.512 36.5859 116.172 36.7852 115.785 37.0547C115.059 37.5703 114.695 38.0273 114.695 38.4258C114.695 38.4844 114.713 38.584 114.748 38.7246C114.783 38.8652 114.947 39.1523 115.24 39.5859C115.557 40.1133 115.814 40.377 116.014 40.377ZM136.809 24.8027C136.375 24.8027 136.076 24.5918 135.912 24.1699C135.9 24.1113 135.895 24.041 135.895 23.959C135.895 23.6777 136.012 23.2969 136.246 22.8164C136.492 22.3242 136.814 21.8438 137.213 21.375C137.623 20.9062 137.969 20.6719 138.25 20.6719C138.742 20.6719 139.158 20.7715 139.498 20.9707C139.85 21.1582 140.025 21.3867 140.025 21.6562C140.025 21.7734 139.92 22.0137 139.709 22.377C139.51 22.7285 139.27 23.0918 138.988 23.4668C138.238 24.3574 137.512 24.8027 136.809 24.8027ZM134.998 35.4375H134.102C133.551 35.4375 132.936 35.0742 132.256 34.3477C131.752 33.7266 131.5 32.959 131.5 32.0449C131.5 31.8223 131.547 31.3418 131.641 30.6035C131.734 29.8535 132.209 28.8457 133.064 27.5801C133.768 26.5137 134.383 25.9805 134.91 25.9805C135.262 25.9805 135.631 26.1562 136.018 26.5078C136.322 26.7539 136.475 26.9531 136.475 27.1055C136.475 27.2227 136.422 27.3809 136.316 27.5801C136.223 27.7793 136.023 28.1133 135.719 28.582C135.32 29.1914 134.998 29.8711 134.752 30.6211C134.459 31.5 134.312 32.2324 134.312 32.8184C134.312 33.2637 134.43 33.4863 134.664 33.4863C135.449 33.4863 136.604 33.1406 138.127 32.4492C139.662 31.7461 141.268 30.8965 142.943 29.9004C144.631 28.9043 146.102 27.9668 147.355 27.0879C148.34 26.3965 149.037 26.0508 149.447 26.0508C149.857 26.0508 150.145 26.2324 150.309 26.5957C150.332 26.6426 150.344 26.6953 150.344 26.7539C150.344 27.1055 149.939 27.6562 149.131 28.4062C148.322 29.1562 147.168 30.0234 145.668 31.0078C144.18 31.9922 142.568 32.9297 140.834 33.8203C140.131 34.1836 139.24 34.5469 138.162 34.9102C137.096 35.2617 136.041 35.4375 134.998 35.4375ZM146.828 36.668C146.664 36.668 146.518 36.6387 146.389 36.5801C146.002 36.4043 145.809 36.123 145.809 35.7363C145.809 35.3848 145.908 34.8105 146.107 34.0137C146.482 32.5137 146.998 30.9727 147.654 29.3906C148.299 27.7969 148.814 26.7832 149.201 26.3496C149.506 26.1152 149.852 25.998 150.238 25.998C150.543 25.998 150.824 26.0625 151.082 26.1914C151.34 26.3086 151.469 26.4609 151.469 26.6484C151.445 26.7656 151.352 27.0234 151.188 27.4219C151.023 27.8203 150.848 28.2598 150.66 28.7402L149.588 31.5527L150.432 30.9375C152.225 29.5898 154.053 28.459 155.916 27.5449C157.779 26.6309 159.156 26.1738 160.047 26.1738C160.188 26.1738 160.316 26.1914 160.434 26.2266C160.773 26.3906 160.943 26.5957 160.943 26.8418C160.943 27.123 160.797 27.4102 160.504 27.7031C160.211 27.9961 159.895 28.1836 159.555 28.2656C158.547 28.6758 157.088 29.5195 155.178 30.7969C153.279 32.0742 151.65 33.3105 150.291 34.5059C148.744 35.9473 147.59 36.668 146.828 36.668ZM160.908 37.7402C160.346 37.7402 159.871 37.5 159.484 37.0195C159.32 36.7383 159.238 36.3633 159.238 35.8945C159.238 35.332 159.42 34.4648 159.783 33.293C160.135 32.1094 160.779 30.7559 161.717 29.2324C162.643 27.6973 163.615 26.5605 164.635 25.8223C165.607 25.1895 166.357 24.873 166.885 24.873C167.447 24.873 167.729 25.1074 167.729 25.5762C167.729 25.7168 167.67 25.9043 167.553 26.1387C167.436 26.3613 167.195 26.4727 166.832 26.4727C166.562 26.4727 166.164 26.748 165.637 27.2988C165.109 27.8379 164.582 28.5 164.055 29.2852C163.516 30.0586 163.082 30.8145 162.754 31.5527C162.273 32.6777 161.951 33.627 161.787 34.4004C161.717 34.7168 161.682 34.9746 161.682 35.1738C161.682 35.4316 161.752 35.5605 161.893 35.5605C162.338 35.5605 162.936 35.0684 163.686 34.084C164.963 32.3965 166.604 29.6191 168.607 25.752C169.873 23.291 171.051 20.8828 172.141 18.5273C173.758 14.9297 174.824 12.7031 175.34 11.8477C175.645 11.3203 175.92 10.9629 176.166 10.7754C176.424 10.5879 176.717 10.4941 177.045 10.4941C177.42 10.4941 177.631 10.582 177.678 10.7578C177.689 10.8047 177.695 10.8633 177.695 10.9336C177.695 11.1211 177.631 11.3672 177.502 11.6719C176.975 12.9609 175.932 15.3809 174.373 18.9316C173.318 21.2871 172.533 23.0918 172.018 24.3457C171.502 25.5879 171.168 26.5371 171.016 27.1934C170.875 27.8379 170.805 28.4883 170.805 29.1445C170.852 30.0234 171.027 30.5977 171.332 30.8672C171.578 31.0664 171.871 31.166 172.211 31.166L172.51 31.1484C173.529 30.9727 174.461 30.5449 175.305 29.8652C176.148 29.1855 176.945 28.4355 177.695 27.6152C178.141 27.1582 178.574 26.7246 178.996 26.3145C179.324 26.0332 179.588 25.8926 179.787 25.8926C179.834 25.8926 179.922 25.916 180.051 25.9629C180.18 26.0098 180.273 26.2207 180.332 26.5957C180.332 26.9355 179.963 27.5508 179.225 28.4414C178.486 29.3203 177.648 30.1992 176.711 31.0781C175.785 31.957 174.994 32.6016 174.338 33.0117C173.881 33.2695 173.289 33.5098 172.562 33.7324C172.082 33.8848 171.607 33.9609 171.139 33.9609C170.916 33.9609 170.576 33.9258 170.119 33.8555C169.662 33.7734 169.252 33.3574 168.889 32.6074L168.678 32.0801C168.537 31.6816 168.42 31.4824 168.326 31.4824C168.209 31.4824 168.004 31.7344 167.711 32.2383C166.598 33.9492 165.273 35.3965 163.738 36.5801C162.918 37.1543 162.127 37.5234 161.365 37.6875C161.213 37.7227 161.061 37.7402 160.908 37.7402ZM186.818 36.0352C185.951 36.0352 185.184 35.8711 184.516 35.543C183.859 35.2148 183.391 34.6934 183.109 33.9785C182.863 33.2871 182.723 32.3027 182.688 31.0254C182.441 31.1543 182.113 31.377 181.703 31.6934C181.363 31.9512 180.988 32.2148 180.578 32.4844C180.168 32.7539 179.734 32.9883 179.277 33.1875C178.82 33.375 178.363 33.4688 177.906 33.4688C177.238 33.4688 176.635 33.2227 176.096 32.7305C175.686 32.3086 175.48 31.834 175.48 31.3066C175.48 30.627 175.727 29.9238 176.219 29.1973C176.699 28.4707 177.244 27.8203 177.854 27.2461C178.451 26.6719 178.961 26.2676 179.383 26.0332C179.805 25.7871 180.273 25.6055 180.789 25.4883C181.305 25.3594 181.803 25.2949 182.283 25.2949C182.775 25.2949 183.209 25.3652 183.584 25.5059C183.959 25.6465 184.158 25.8867 184.182 26.2266C184.182 26.4492 184.064 26.6191 183.83 26.7363C183.607 26.8418 183.215 26.9297 182.652 27C181.973 27.1055 181.293 27.416 180.613 27.9316C179.945 28.4473 179.383 28.998 178.926 29.584C178.469 30.1699 178.24 30.6035 178.24 30.8848C178.24 31.0254 178.316 31.0957 178.469 31.0957C178.703 31.0957 179.037 30.9551 179.471 30.6738C179.893 30.3926 180.361 30.0645 180.877 29.6895C181.533 29.1855 182.195 28.7285 182.863 28.3184C183.531 27.8965 184.1 27.6855 184.568 27.6855C185.213 27.6855 185.535 28.2129 185.535 29.2676C185.535 29.5605 185.512 29.9004 185.465 30.2871C185.406 30.7324 185.377 31.1309 185.377 31.4824C185.377 32.3145 185.535 32.9238 185.852 33.3105C186.18 33.6973 186.707 33.8906 187.434 33.8906H187.557C189.537 33.7617 191.693 33.123 194.025 31.9746C196.357 30.8145 198.326 29.5898 199.932 28.3008L200.564 27.7734C201.186 27.2578 201.66 26.8887 201.988 26.666C202.316 26.4316 202.627 26.3145 202.92 26.3145C203.107 26.3145 203.312 26.3555 203.535 26.4375C203.711 26.5078 203.799 26.625 203.799 26.7891C203.799 26.9531 203.711 27.1465 203.535 27.3691C201.027 29.8887 198.379 31.8984 195.59 33.3984C192.801 34.8984 190.146 35.7656 187.627 36C187.346 36.0234 187.076 36.0352 186.818 36.0352ZM210.689 35.2266C209.834 35.2266 209.225 34.8105 208.861 33.9785C208.686 33.5215 208.598 33.0059 208.598 32.4316C208.598 31.6582 208.674 30.8848 208.826 30.1113C208.92 29.5605 208.967 29.1328 208.967 28.8281C208.967 28.7344 208.961 28.6523 208.949 28.582C208.879 28.582 208.557 28.7344 207.982 29.0391C207.42 29.332 206.746 29.707 205.961 30.1641C204.953 30.75 204.162 31.1719 203.588 31.4297C203.025 31.6875 202.545 31.8164 202.146 31.8164C201.83 31.8164 201.52 31.7402 201.215 31.5879C200.875 31.459 200.705 31.1602 200.705 30.6914C200.705 30.1055 200.98 29.1445 201.531 27.8086C201.824 27.0703 202.088 26.5371 202.322 26.209C202.545 25.8809 202.785 25.7168 203.043 25.7168C203.277 25.7168 203.541 25.834 203.834 26.0684C204.08 26.1855 204.203 26.3906 204.203 26.6836C204.203 26.918 204.127 27.252 203.975 27.6855C203.752 28.248 203.641 28.6406 203.641 28.8633C203.641 29.0273 203.699 29.1094 203.816 29.1094C203.969 29.1094 204.168 29.0449 204.414 28.916C204.66 28.7754 204.947 28.5996 205.275 28.3887C205.615 28.1777 205.984 27.9609 206.383 27.7383C208.141 26.7305 209.377 26.2266 210.092 26.2266C210.49 26.2266 210.818 26.3496 211.076 26.5957C211.252 26.7363 211.381 26.8828 211.463 27.0352C211.545 27.1758 211.586 27.3809 211.586 27.6504C211.586 28.0488 211.51 28.6699 211.357 29.5137C211.182 30.4746 211.094 31.2188 211.094 31.7461C211.094 32.1797 211.152 32.4844 211.27 32.6602C211.398 32.8359 211.598 32.9238 211.867 32.9238C212.406 32.9238 213.684 32.4727 215.699 31.5703C217.188 30.9141 218.711 30.1934 220.27 29.4082C221.84 28.623 223.076 27.9551 223.979 27.4043C224.963 26.8184 225.637 26.5254 226 26.5254C226.211 26.5254 226.352 26.5957 226.422 26.7363C226.492 26.8652 226.527 27.0352 226.527 27.2461C226.527 27.5977 225.947 28.1719 224.787 28.9688C223.639 29.7656 222.203 30.6094 220.48 31.5C218.758 32.3906 216.994 33.1875 215.189 33.8906C214.123 34.3242 213.227 34.6582 212.5 34.8926C211.785 35.1152 211.182 35.2266 210.689 35.2266ZM218.934 37.8457C218.617 37.8457 218.365 37.7871 218.178 37.6699C217.979 37.5645 217.879 37.4121 217.879 37.2129C217.879 36.9434 218.096 36.6094 218.529 36.2109L220.305 34.6289C220.598 34.3711 220.914 33.9082 221.254 33.2402C221.582 32.5723 221.893 31.8047 222.186 30.9375C222.689 29.4492 223.293 28.1953 223.996 27.1758C224.699 26.1445 225.338 25.6289 225.912 25.6289C226.334 25.6289 226.721 25.7461 227.072 25.9805C227.436 26.2031 227.617 26.4785 227.617 26.8066C227.617 26.9355 227.564 27.0586 227.459 27.1758C227.365 27.2812 227.23 27.4043 227.055 27.5449C226.715 27.791 226.322 28.1895 225.877 28.7402C225.443 29.291 225.051 30.1172 224.699 31.2188L224.207 32.9238C224.652 32.6895 225.432 32.2383 226.545 31.5703C227.67 30.8906 228.906 30.1641 230.254 29.3906C231.613 28.6172 232.896 27.9434 234.104 27.3691C235.311 26.7949 236.207 26.5078 236.793 26.5078C237.168 26.5078 237.367 26.6719 237.391 27V27.1934C237.391 27.6621 237.262 28.0078 237.004 28.2305C236.758 28.4531 236.447 28.6523 236.072 28.8281C235.92 28.8984 235.762 28.9805 235.598 29.0742C232.387 30.6797 229.375 32.2617 226.562 33.8203C223.762 35.3789 222.033 36.4043 221.377 36.8965C220.943 37.2246 220.516 37.4648 220.094 37.6172C219.66 37.7695 219.273 37.8457 218.934 37.8457Z" fill="white"/>
</svg>
